<?xml version="1.0" encoding="UTF-8"?>
<svg width="8px" height="5px" viewBox="0 0 8 5" version="1.1" xmlns="http://www.w3.org/2000/svg" xmlns:xlink="http://www.w3.org/1999/xlink">
    <!-- Generator: sketchtool 52.5 (67469) - http://www.bohemiancoding.com/sketch -->
    <title>77EB07E7-C92B-4B60-A1D2-9499EF64FC7D</title>
    <desc>Created with sketchtool.</desc>
    <g id="Actual" stroke="none" stroke-width="1" fill="none" fill-rule="evenodd" opacity="0.900000036">
        <g id="01-02-default-user-menu" transform="translate(-1164.000000, -27.000000)">
            <g id="Group" transform="translate(1168.000000, 30.000000) scale(1, -1) translate(-1168.000000, -30.000000) translate(1160.000000, 22.000000)">
                <rect id="Rectangle" fill="#D8D8D8" opacity="0" x="0" y="0" width="16" height="16"></rect>
                <path d="M7.91421356,10.8247632 C7.63051117,10.849045 7.33842169,10.7526353 7.12132034,10.5355339 L4.29289322,7.70710678 C3.90236893,7.31658249 3.90236893,6.68341751 4.29289322,6.29289322 C4.68341751,5.90236893 5.31658249,5.90236893 5.70710678,6.29289322 L7.91421356,8.5 L10.1213203,6.29289322 C10.5118446,5.90236893 11.1450096,5.90236893 11.5355339,6.29289322 C11.9260582,6.68341751 11.9260582,7.31658249 11.5355339,7.70710678 L8.70710678,10.5355339 C8.49000544,10.7526353 8.19791595,10.849045 7.91421356,10.8247632 Z" id="Combined-Shape" fill="#0A4FB1"></path>
            </g>
        </g>
    </g>
</svg>